<?xml version="1.0" encoding="UTF-8"?>
<svg width="206px" height="48px" viewBox="0 0 206 48" version="1.1" xmlns="http://www.w3.org/2000/svg" xmlns:xlink="http://www.w3.org/1999/xlink">
    <!-- Generator: Sketch 50 (54983) - http://www.bohemiancoding.com/sketch -->
    <title>Artboard 1</title>
    <desc>Created with Sketch.</desc>
    <defs>
        <polygon id="path-1" points="0.117489231 0.0730338462 23.2844308 0.0730338462 23.2844308 31.5174646 0.117489231 31.5174646"></polygon>
        <polygon id="path-3" points="0 48.2462031 205.684431 48.2462031 205.684431 0.000295384615 0 0.000295384615"></polygon>
    </defs>
    <g id="Artboard-1" stroke="none" stroke-width="1" fill="none" fill-rule="evenodd">
        <path d="M73.0887877,33.8168123 C76.5374031,33.8168123 79.3568492,32.4528738 81.5456492,29.72352 L86.0443569,34.3566277 C82.4753723,38.3760738 78.2698338,40.3854277 73.4262646,40.3854277 C68.5826954,40.3854277 64.5942646,38.8553354 61.4609723,35.7966277 C58.3269415,32.73792 56.7599262,28.8765046 56.7599262,24.21312 C56.7599262,19.5504738 58.35648,15.65952 61.5503262,12.53952 C64.7441723,9.42099692 68.6498954,7.86136615 73.2689723,7.86136615 C78.4271262,7.86136615 82.7449108,9.82567385 86.2245415,13.7542892 L81.8609723,18.70272 C79.6411569,15.9438277 76.8830031,14.5643815 73.5835569,14.5643815 C70.9450338,14.5643815 68.6875569,15.4261662 66.8133415,17.1504738 C64.9391262,18.87552 64.0020185,21.1994585 64.0020185,24.1230277 C64.0020185,27.0473354 64.8866954,29.3941662 66.6560492,31.1627815 C68.4261415,32.9328738 70.5706338,33.8168123 73.0887877,33.8168123" id="Fill-1" fill="#FFFFFF"></path>
        <polygon id="Fill-3" fill="#FFFFFF" points="109.655631 8.58114462 116.673231 8.58114462 116.673231 40.0255754 109.655631 40.0255754 109.655631 27.6548677 97.1490462 27.6548677 97.1490462 40.0255754 90.1329231 40.0255754 90.1329231 8.58114462 97.1490462 8.58114462 97.1490462 21.71616 109.655631 21.71616"></polygon>
        <path d="M131.614006,31.7665477 C132.783729,33.2213169 134.358129,33.9487015 136.337206,33.9487015 C138.317022,33.9487015 139.883298,33.2213169 141.038252,31.7665477 C142.192468,30.3117785 142.769945,28.3253169 142.769945,25.8064246 L142.769945,8.44224 L149.787545,8.44224 L149.787545,26.0309169 C149.787545,30.58944 148.527729,34.0912246 146.008837,36.5347938 C143.489945,38.97984 140.265822,40.2012554 136.337206,40.2012554 C132.407852,40.2012554 129.177083,38.9717169 126.643422,36.51264 C124.109022,34.0535631 122.841822,30.5599015 122.841822,26.0309169 L122.841822,8.44224 L129.859422,8.44224 L129.859422,25.8064246 C129.859422,28.3253169 130.444283,30.3117785 131.614006,31.7665477" id="Fill-5" fill="#FFFFFF"></path>
        <polygon id="Fill-7" fill="#FFFFFF" points="169.661391 14.5151262 169.661391 39.8864492 162.643791 39.8864492 162.643791 14.5151262 153.737206 14.5151262 153.737206 8.44201846 178.567975 8.44201846 178.567975 14.5151262"></polygon>
        <g id="Group-11" transform="translate(182.400000, 8.369280)">
            <mask id="mask-2" fill="white">
                <use xlink:href="#path-1"></use>
            </mask>
            <g id="Clip-10"></g>
            <polygon id="Fill-9" fill="#FFFFFF" mask="url(#mask-2)" points="22.7897354 0.0730338462 22.7897354 6.32558769 7.13508923 6.32558769 7.13508923 12.8033723 21.2145969 12.8033723 21.2145969 18.7863877 7.13508923 18.7863877 7.13508923 25.3092185 23.2845046 25.3092185 23.2845046 31.5174646 0.117489231 31.5174646 0.117489231 0.0730338462"></polygon>
        </g>
        <path d="M24.1231754,30.2662154 C21.8516677,30.2662154 20.0099446,28.4244923 20.0099446,26.1529846 C20.0099446,23.8814769 21.8516677,22.0397538 24.1231754,22.0397538 C26.3946831,22.0397538 28.2364062,23.8814769 28.2364062,26.1529846 C28.2364062,28.4244923 26.3946831,30.2662154 24.1231754,30.2662154 M24.1150523,20.0436923 C20.7757292,20.0436923 18.0685292,22.7508923 18.0685292,26.0902154 C18.0685292,29.4302769 20.7757292,32.1374769 24.1150523,32.1374769 C27.4551138,32.1374769 30.1623138,29.4302769 30.1623138,26.0902154 C30.1623138,22.7508923 27.4551138,20.0436923 24.1150523,20.0436923" id="Fill-12" fill="#FFFFFF"></path>
        <mask id="mask-4" fill="white">
            <use xlink:href="#path-3"></use>
        </mask>
        <g id="Clip-15"></g>
        <polygon id="Fill-14" fill="#FFFFFF" mask="url(#mask-4)" points="26.3881846 16.7537723 31.9517538 16.7537723 31.9517538 14.0450954 26.3881846 14.0450954"></polygon>
        <path d="M35.8376123,35.4542031 L35.8376123,35.47488 L35.5643815,35.47488 C35.4041354,35.4852185 35.2424123,35.4911262 35.0806892,35.4911262 C34.9174892,35.4911262 34.7565046,35.4852185 34.59552,35.47488 L13.3662277,35.47488 C13.2089354,35.4852185 13.0516431,35.4911262 12.8921354,35.4911262 C8.67108923,35.4911262 5.24832,32.0690954 5.24832,27.8480492 C5.24832,24.2487877 7.73693538,21.2321723 11.0873354,20.4213415 C11.3066585,17.4512492 13.7849354,15.1095877 16.8104123,15.1095877 C18.4232123,15.1095877 19.8801969,15.77568 20.9229046,16.8464492 C22.1546585,13.4805415 25.3861662,11.0783262 29.1781662,11.0783262 C34.0320738,11.0783262 37.9665969,15.0121108 37.9665969,19.8660185 C37.9665969,19.9775262 37.9621662,20.0875569 37.9577354,20.1983262 C40.9071508,21.3495877 42.9969969,24.2170338 42.9969969,27.57408 C42.9969969,31.6910031 39.8548431,35.0724185 35.8376123,35.4542031 M24.1233969,-7.38461538e-05 C10.8008123,-7.38461538e-05 7.38461538e-05,10.8006646 7.38461538e-05,24.1232492 C7.38461538e-05,37.4458338 10.8008123,48.2458338 24.1233969,48.2458338 C37.4459815,48.2458338 48.24672,37.4458338 48.24672,24.1232492 C48.24672,10.8006646 37.4459815,-7.38461538e-05 24.1233969,-7.38461538e-05" id="Fill-16" fill="#FFFFFF" mask="url(#mask-4)"></path>
    </g>
</svg>