<?xml version="1.0" standalone="no"?>
<!DOCTYPE svg PUBLIC "-//W3C//DTD SVG 1.1//EN" "http://www.w3.org/Graphics/SVG/1.1/DTD/svg11.dtd">
<svg width="100%" height="100%" viewBox="0 0 126 65" version="1.1" xmlns="http://www.w3.org/2000/svg" xmlns:xlink="http://www.w3.org/1999/xlink" xml:space="preserve" style="fill-rule:evenodd;clip-rule:evenodd;stroke-linejoin:round;stroke-miterlimit:1.41421;">
    <g transform="matrix(0.33544,0,0,0.3371,-39.9541,-76.2025)">
        <path d="M407.018,365.216C419.643,365.216 429.37,361.119 436.202,352.928C443.026,344.737 446.442,334.672 446.442,322.72C446.442,310.776 442.77,300.535 435.434,292C428.09,283.472 418.106,279.199 405.483,279.199C398.651,279.199 392.082,280.656 385.77,283.552C379.45,286.456 373.483,290.128 367.85,294.561C362.219,299 356.842,303.863 351.723,309.153C346.602,314.447 341.995,319.313 337.899,323.744C342.33,328.863 347.114,333.904 352.235,338.848C357.354,343.8 362.811,348.24 368.618,352.16C374.418,356.088 380.475,359.248 386.793,361.632C393.106,364.024 399.85,365.216 407.018,365.216M307.157,289.423C307.288,289.281 327.666,266.116 327.799,265.975C334.68,258.648 342.057,252.213 349.93,246.688C357.946,241.056 366.651,236.535 376.041,233.119C385.426,229.712 395.579,228 406.506,228C420.155,228 432.442,230.392 443.37,235.168C454.289,239.951 463.506,246.52 471.018,254.88C478.522,263.248 484.331,273.056 488.426,284.32C492.522,295.584 494.571,307.872 494.571,321.184C494.571,334.496 492.522,346.96 488.426,358.561C484.331,370.168 478.522,380.32 471.018,389.024C463.506,397.729 454.202,404.561 443.114,409.504C432.018,414.456 419.643,416.928 405.995,416.928C395.411,416.928 385.514,415.313 376.299,412.065C367.082,408.824 358.457,404.561 350.442,399.264C342.418,393.977 334.827,387.832 327.659,380.832C320.491,373.84 313.659,366.584 307.178,359.072C300.01,366.584 293.01,373.84 286.186,380.832C279.354,387.832 272.106,393.977 264.427,399.264C256.746,404.561 248.378,408.824 239.338,412.065C230.29,415.313 220.139,416.928 208.874,416.928C194.874,416.928 182.418,414.456 171.498,409.504C160.57,404.561 151.186,397.904 143.338,389.535C135.482,381.176 129.515,371.192 125.418,359.584C121.322,347.985 119.274,335.52 119.274,322.208C119.274,308.897 121.234,296.528 125.162,285.088C129.082,273.656 134.803,263.76 142.314,255.392C149.818,247.031 159.034,240.376 169.962,235.424C180.883,230.481 193.17,228 206.826,228C218.091,228 228.41,229.712 237.803,233.119C247.186,236.535 268.568,247.506 275.901,253.756L244.12,293.936C238.403,289.782 232.456,286.319 226.282,283.552C219.794,280.656 213.307,279.199 206.826,279.199C194.874,279.199 185.402,283.729 178.41,292.768C171.41,301.817 167.914,311.968 167.914,323.233C167.914,335.52 171.498,345.592 178.666,353.44C185.834,361.296 195.73,365.216 208.362,365.216C214.843,365.216 221.33,363.936 227.818,361.376C234.299,358.817 240.442,355.576 246.25,351.649C252.051,347.729 257.515,343.288 262.635,338.336C267.754,333.393 272.362,328.528 276.458,323.744L307.157,289.423Z" style="fill:rgb(150,150,150);fill-rule:nonzero;"/>
    </g>
</svg>
